/* XPM */
static char *sprite[] = {
/* columns rows colors chars-per-pixel */
"32 32 4 1 ",
"  c None",
". c #AC3232",
"X c #9BADB7",
"o c white",
/* pixels */
"                                ",
"                                ",
"                                ",
"                                ",
"                                ",
"                                ",
"              oooo              ",
"           ooooXXoooo           ",
"          ooXXXXXXXXoo          ",
"         ooXXoXXXXoXXoo         ",
"        ooXXXooXXooXXXoo        ",
"        oXXXXXXXXXXXXXXo        ",
"       ooXXXoooXXoooXXXoo       ",
"      ooXXXXo.oXXo.oXXXXoo      ",
"      oXXXXXo.oXXo.oXXXXXo      ",
"     ooXXXXXoooXXoooXXXXXoo     ",
"     oXXXXXXXXXXXXXXXXXXXXo     ",
"    ooXXXXXXXXXXXXXXXXXXXXoo    ",
"    oXXXXXooooooooooooXXXXXo    ",
"   ooXXXXXoXXXXXXXXXXoXXXXXoo   ",
"   oXXXXXXoXXXXXXXXXXoXXXXXXo   ",
"  ooXXXXXXXXXXXXXXXXXXXXXXXXoo  ",
"  oXXXXXXXXXXXXXXXXXXXXXXXXXXo  ",
"  oXXXXXXXXooXXXXXXooXXXXXXXXo  ",
" oooooXXXXoooXXXXXXoooXXXXooooo ",
" ooo oXXXoo  oXXXXo  ooXXXo ooo ",
" oo  ooXXo   ooXXoo   oXXoo  oo ",
" oo   oooo    oooo    oooo   oo ",
" o     oo      oo      oo     o ",
"               oo               ",
"                                ",
"                                "
};
