/* XPM */
static char *wall_tex_a[] = {
/* columns rows colors chars-per-pixel */
"128 128 2 1 ",
"  c #696A6A",
". c #847E87",
/* pixels */
". ...  . ..... . . ..  . ................ .. ............. . .  .....  .... ......  .. ....... .  ........  ........... .... ...",
"..... . . .. . ...   ... ..... . . . ... ....... ......... ...  .  .. .... . .................... ........ ................ ....",
".     .. ......... .. ......... . .......  .... ............ . ......... . . ........ .. .... .... ..... ........... . .........",
"  .... . ........ .... .. .. ... .. .... ..  .......... ......   ............ .... ................... ...  ... . ..............",
".   ...   .  ..  ...... ....  ..  .............  . ... .................. ...... .. .............. .....  .  ......... .........",
".  .. .....    .. ...... . ... ... ...... .........  . .. ....... ...  .................. . .. ...................... . . .. .. ",
".... .   . ..... . ..................  . ....... . . ....... ... ..... .......    .... ...... ....  ..    .. ....... ...........",
"...  ...  . ..  ..  ....  ........ ... ...  ...  ..  .  ....... ....  ........  ............ ......... .  ... ..................",
" .  .. . .... ...  ....  ......  ..... ...... ..   . ... ...... . .. ..... .....  .. . ....... .....  . .  ...  ... ......... ..",
" .     . .... . ... ... . ..   .... .... ........ ............. .. ...... .......... .... ....... .....  ..   ........ .....  ..",
" ..   . .. .      ...... ... . .. ... .  .. ...... ... .  ......  . ....... ... ...... ...  ....  .......... ...  ...  .. ......",
".  . . ....  .......  ..  ....    .... . ......   ..... . ........  . .. ..... .... .. .. ...........    .. ....   ...... .. ...",
"      .. ..  . . .. .   .   .  ........ . .   ..  . .  .... . .....  ..... .......  ..... ............  .... ... . . ...... ... ",
".  .   .    .  . .     .  ..  ...  . . . .. ... .  ... ... ...  .... . .. .... .. ... .. ... . .....  ....  ... ... .......    .",
". . .  .   .    .   ... ..  .  ........   ........ .  .........  .. ........ .......   ............. . . ..  .....   . .  .. .  ",
".  . ... .     ... ...... .....  ... ............ ........ . ........ ... ... ..........    . .. .. .  . .. ...   . .. .  ......",
"  . ...  .. ... ...  ... ..   ...  .... . . ......  . ..   ...... . .. .....  ... .... ...... ... . ........... . .. ...  .. . .",
".. .. ..... . .. .. ....... .......... .  ......... .... . .. ..... .  ....... ....................... .. . ... ..  ..  ...  ...",
".   ...      .    .. ... .. .. . ... ...  .... . ............. ...... ................. ... ...  . . .. .  ...   ....... ... ...",
"........... ... .......... ... .. .. . . .. .  ...... . ... .. .   ... . ... ....  ........... ...  .. ..... .   .......  .... .",
" ..       .... .. . . ....... ....  ...  .....   .....  . ........  ..... ............. .  ...  . ..... .. ... .... ... ........",
"... .   .    .  .. .. .... . ..... ... .......... ....... ....... ......... ...... ... ...... ................. ....... ..  . ..",
"... ... ... . .   ...    .... ..... . ...  ...... ...  .... . .  ............... ......... .. ..  . . .  ...  ... . .. .........",
".... ... .. .....  ..... . ..........   .. .. ... .. .. ..... .. . .. .......   .. .. ...... . ....  . .. .  .. ... ........ . .",
"   .. ....... .. .  .......... ... ...   ... .. .......   .. . .... .......... ........ ..  ...   .....  ... . ..... . ..... ...",
". ...  .. ..... .. .. . .  ...... ....  .. ...... . . . ...  ......  . ........ ...... . .. .... . .. ..     ..   .... .........",
" . .  .... ........ . . .   .. ...... .... .. ..... ........... .. ...... ............... ...... ... .  . . .. . ..  ....... .  ",
"... .... ...... . .    ... .. ... . . ... . . ...  ... ...  ........... .. ...... ..  .....  ................ . .   . ....... ..",
". .  ... .  ....  . ....   ..... .........  . . .... ... . ...... ... .... ... .. ....... . ... .. ..... ..................... .",
"  ..  .... ....   .. . .. .   .. .....  .... ...... ..... ................ ....  .............. ... ... . .....   .... . .......",
"  ....  . ... .   . ...... ... . ...  ..  .. .... ...  . .... ......... . . . . ........  ....... ..... ..  ...  . ........ ....",
". .  .   .... .  . ............  ..  ..... ... . .....  ....... .. ............. ..............  . ...   . ..    . ..... .. ... ",
". ... ..  ..  . .. .  ..  .. ....... ..    ...... ..... ............... .........  .........  ... .. . .... ..  .. .. ..........",
" ..   .  . . . .   ..   .       .    .. ........  ......... ... ..  .....  .......  ... .... ............. ... ...  ........... ",
" ...  . .. .  . .  .    .  ........  .... . ....................... . ....  ..... .. . .. . .  . .... .... ... ........ .... ...",
". .    .. ..     . .. .... ..  ...  ........ ........ ........ . ....  ... . .... .. ...... .......  .   . .  .  ......... .  ..",
"  ...... .  . . . ....   .  . . . ........ . ..  . .. . .... .. ........... .. ... ... .............. ....  . .. .. .. ..... ...",
".  .. . .     .  . ..    ....... ................. .. ............... . . . ... .  .  ..  . ...... . ... . ... .  .. .... . ... ",
" . ...      ....... . . .. . ... . . ....  .... ..... . .. ......... ............... .......... .. .. .. ... ...  ...  . .. .. .",
"   .. .   .   .  . .  .   .   ..  ... ..... .. .. .. ..... ..  ......  ......... .. . .....  ... ...... .... ...  .  ...... . ..",
".....   .    ...     .      .. ....  .... ...... ..... ...... ... .. ...  . .... .. ..  ..... ...  .. ..   ... ... ........  .. ",
".... .. .    . .  . .  .   .. ...  .  .. . ............ .........  ........ ....  .. . . .  ..... . ... .  . . ..... .. .   ....",
"... . ..   . .   ...  . .  .      .............. ..... .. ..... .....  .  .. ... ....  . .. .... . ... . ....  ... ... . . . ...",
"  ..  .      .       .   ..  . . ....   ... ..   ..... ..  .. ..   ....  ........  . .. ... ........ ... .        .     ........",
".                   .     ...   .  ..     ...   . .  . .... ...   ........ ...  . .    . . ... . ...        .       ... ...   ..",
" ..  ..        .        .    ..  .... .  . ....................  . .... ... . ...... ............ .  ...   ..     .    ..  .   .",
" ..         .     .  ...  .    . . ....  .    .... ...... .. .... ... .  ...        ... .. ...  .. .. .  ..  . . ...... ...... .",
"... ..            .       .  ...........  ....... .... ...   .. .   ... ....    .... . .  . . ... . ...   ..  .   .    ....     ",
" .  ..... ..    .. .   ..   . .. .  ... ... .. ... . ...... .... ... ...  .   ..    ....  .... . ... .  ...     ............  ..",
".. .  ... .... . .. . .. .. ... ....  .. .  ... ... .......... .   . ..  ..  . .. . ...  ... ........  .  .. .  .....  .... . . ",
".   .. ..    .. ..   .. ....     ..  . . .......... ....... ..........    .... ..  .  . ... ... ...........  . ........  .. ....",
"      ..   . ... ..  .... . .....  ... .  .... ..  .. ..   .. ........ .....  ..  ... .......... ..   ..  . .   .. .. . .. .....",
".       .    ..    . . .... .... . ...............    ... .. ... ......  ...... . . .  .....   .....  .. .    .. ... .  ..... ..",
".    .. ...   ... .    ..  .  . .     . .  . ... . . ..... .. ... ...     ....  .. .   . . ..    ...   ..  .... .. . . ...  ....",
" ... ....  .   ...  .. ... ..... ...  . .......... ...... .. . ...... . .... . .. ..  ....  ......   ...... ......... . .... ...",
"....     .  ..  ..   . .. .  .  ...  . .. . .. ..  ...... ... .... .    .. . . ....... ..... .... ...  .  ......... ........  ..",
". . .. .  ..   .    . . . . .    .. ...  . .......... . ...  . ... .  .. . .... ... .... ....   .. .. . .  ..  ... . ... .. ... ",
"... .  . .....  . . . ..... ...  . .. . ......   .. . .. .. ..... .... ....... . .............. . ....... ...  ....  ... . .....",
". . .    .. . ... ...   ...   ....  ... ...... .  ... .  ..........   ... .... .......... .... .  .... ...... .... . .. .. . .. ",
" .    ...  .  .... .  . .  .   ...... . ... ..  .... . ............ ..... .. .. ..  ....... . ..  ....  ...... . .... .  ....  .",
"   ..    . ...  .  .. ..   .... . ... .. .. ..  . ... .. . . . ......   .. .  .. ... .......  ..  . .  .... .. ... .... .. .....",
". .. ....   ..... . .. .. . . .... ... ..  ..  . .  ...  .... . ....  .. ..   . .. .    .. ......  ..... . . . .......... .. .  ",
"......   ....    . . .  .... . ..... ...  .  . ...  .    .....   ......... .....    ...........  . ... .. ... . .. ........ ....",
" .  ..   .   . .. .     ...  .  . .. ..  .....  .  .... . ... ......  .   .. .. ... .... ........ ........... . . ... .. ... .  ",
"     ... .  ..  .....  ...  . ..  ... ....  . .. .  ........ .  .   .. . ..... . .  ........... ..... . ...    ....... ... ..  .",
". ......   . . . ...   . ...  .  ..   . ..  .. . .....  ...   .. .  ....... ... ....... ......  .. ... . . .......  ... . . . . ",
"..   .. .   .     .  .   .. . . .....    .    .. ....  ..     . ..    ...    .. .. .. ......  ..   .  . .... .   .  .    . .... ",
"     .. .  .... . ...      . ..    .... ...   ..    . ....   ..        ...... .... .. . ..... ..... ... .. ...  ..   .  ......  ",
"  .   ....        . .... .. ...... . ...     .. .  .  ...  . .   .    .....  . ... .  . . . . .. .. ..... .  .    ...    .  ... ",
".  . .  .  .. ..   . .  .   . .   .... . ........ .. .. ... .  . .  .......   ..   ... . ...  ................ .......  .. ..  .",
". .... . ...  ... .... . .............. ......... .... ... ...   .......... .. .    ..   .  ... ... .. ... .. .. ...   ... ... .",
".. ... ... . ... ... . ...     ..... ........  . .... ...... . ..... .  .  ....... .   ....  ....... ....... . ... .....       .",
".  .... ...... . ...  . .. ... ...... ....  .. .. .. .  .... .. .. ...... . .  ..... . ... .... . .  . .. ..  .  . .   .... . . ",
" .   ....   .. .. ... . .. . .. .. ......... . ... .. ....  ..  . .. ... ....  ...........  ........ .............   ......... .",
".   ..    .... .....  ......  ..... .  ..  . ............. . ... ..  .... .. .  .. ....  ....  .. ...... ..  .... .  ... ...... ",
" ..... .......  ..  .. .... . .... .. . ........ .. ..  . ...  ... ...   . .... ........ ... ........ . ... .............. .. . ",
".  . .. ..  ...  .. . ...... ... ............... ... ... . ..   . . ... ... . ..... ... . ............. .............  ...... ..",
" . ....... ..  ..   . . .. . . ...... . .............. .... .. . ........ ... ..... .... . . ...... ......  . ...........  .. ..",
"    ..... ......  . ...................... .. .... .. ... ... ......... .. .. .. .....  .  ... ...  .. ....   ..... ............",
"... . ... ....... ...   ..  ......... ... .......... .... . .... .............  .......  .. ..... . ..... . . .... .  .. ...... ",
". ... ...... ............. ... .................. ........... ..... .. .  . .. ............ .............  ... .. . .. .... . ..",
"... ...  .  .    . .  ........  .. ........... .. ........... .... ......... ... ........... ... ... . ..... . .... .... ... ...",
" . ..... ..... ..... . . ..................  ... ...  .. .   .... ....... .  ................. .....  ... .. . ....  ..  .. ....",
".. .. .......  . .. ......  .....  .. .. ... .. ..  ........ .... . ....... ... ....... ...... ..  .. .... ........ ....  . .. .",
" .... .... ........  ..... ........................ ..   ...... ......... . .......................... ........  ..   . .. .....",
"..  . .... . .... .... ... ... ...........   ... ........... ... ...... .............. .......... .............  ....   .  . .. ",
"....  .. .... ....... .......... ......... .....   .. ...... .............  .. .... .. ......... ........ ......  ..   .. ... ..",
"  .... . ....  .. ... .......... ........ ..... ... ....   ...... ........ ..  . ...  ........ . . ..   .......... . ..  .......",
".. . .. .. ........ ... ... .. ...... ..... ... ...... ..... ..... ..... ......... . .....   ...... ... ......  ..........  ....",
" ...  .    . .. . .. .. ........ ................. .. ... ..   ............ . .... ................ .. ... ...... .... . .....  ",
" . ...  . ..........  .  ...........   ... ......... ..... . .. ... .................... ............... .........  ... . ......",
". . ..   .. .... .  ...  .... ....... ..... .. ........ ......... ....... ........ ..... ..   . .... ..........  .. . ..........",
" ......  .......  ... .....  . ....   ......... .. ............. .................   ..... .. . .......... .... ....... . ..... ",
". . . . .   ..   ..     ....... .  .......... .. ............... ....................  . ............... .. .  .... .... .......",
"   .. ... .. . .   ....     .  . . ....... ..... .... ..  .. .. ....... .... ............................. ............. .  ....",
"... ... ... ...  .  . ... . ...   . ... .... .......  ... ......  ...... .... ............ ............. ..................... .",
" .. .   .  .   . . ... . .  ...... . .... .  .... ..... ... .... .... ....... ....... ......... ..... ................. ........",
". ..    .   . ...  .  . ... . .    ..... . ...  ...   . .... . ...... .................. ...... . ......... ...... . ....  ... .",
". .    ... .... .. . .     .  . .... ..  . .. .... .... ... ... ....... ........ ........ ..  ..... .............. ...  . ......",
" .     ..   .... ..  . .  . . .... ... .. ..  .. ...  .......... ....  ......  .. ......... .............    ... ..... ... ... .",
"  .   . . .. . .  .   . . ...  .. . ... .... ... . ...... .   . .... ...... ........... .......... . .. .. ........ ..    . . ..",
"  .  .    ..  .                   ....    . .. . ........ . .. . .... ............  ....... .. ............ ....   .  . .   ....",
" ...                .   ..  . .    .   . .  .    .  ...  . .. ... .... .......... ... .... ..   . .........  .. .......   ..... ",
"   .              ....   ... ...    .  . . . .. .   .....   .. . .. ............... . . ............   .. .. . .. . . .... .....",
". .  . . .. .. .   .... .     ....  ..... ..  .............  ......  .... ......... ..... . . .. .. . ...  ... . ....  ...  . . ",
".  .   ..  .           . . .         ....   . .. .  ......    ....  .    .......... . . ... ......  ...... .... ....  ...... . .",
".    . .       . .    ..  . ...     . . .  .... ... ..... .. ... . .  .  ......... . . . .......... ... .. ...........      . ..",
".        .        .        .. .  . ..    .... ... .  . . ... .... .. .......... ... . .  ... . . .. .... ..   . .. .. .. . .. . ",
" .        .    .    . . . ...  .  ..  ..... .   .   ..... ....  ...... . ..  . ...    .    ... .. .. ..  .. . .... ... .. ....  ",
"         .     .  .  ..   .  ..      .. ..  . ....   .  .........  ..... ....  .........  .. . .   ...  .  .. ...... .. ...   . ",
".             .   .   .   ..  .   .  . .    .. . .  ............  . ................ .. . . ..  ... ... .. ...  ... .. .      . ",
"  .       . .  .   .       . .  . .   ..  .  ........ ......  .. ...... ........... ...... .. .  .... . .. .  ......  .  .   . .",
"      .. .. .            .  .    ..  .  . . ...  . ... . .............. .... ... .. .. ... . .......... ...... ... ......   ..  ",
" . .                .      .   .       .. ..   ... ....................  .......... ....  .....  . . ..   .. .. .. . .....   .  ",
" .  ... ..   .               ..    .  .... ..... ............... ..  ...  . ......... ..... ......  .. .. .  . .... ... ..    . ",
"     ..  . .. .               . ..  .......  . . ........ ..... ..  ..   ...... ..... ... .. ....... ..........  . ... ..     ..",
".   .....  .   . .             .   .    ..  . .   . ........ ....... ................. ...... ... . . ...   ...  . . .  .   ..  ",
"    ..  . .. .     .    .     .     ........ .....  .............. ........... ........... ........... .....  .. . . . . ... .  ",
"..    . ... ...                      .. .... . ................... .... ....   .....  ... ......... .. ..     .  . .  ..  .     ",
". .  ...  .  .. .  ..       .   ..  . ..... ............. ................................. ...... ........  ..  . . .... . ... ",
" .. ... ..... .    ...     .  ..    .....  ....  ................. .... .. ................... ..... .... ....   . .  .   . . . ",
"......    . .  ....  .     . ..  .  .  .. . . ...  .......... ........... ................. . ..  ... ......  .. ..   ..    . ..",
". .  . ..   . . .     ..     ..   ...    ........  ......... .................. . ............... ..... ........ ...... .    .. ",
" ........   ..  .. ... . ..  .  ..... . ...... ........ ....... ........ ............................ .... .... .... . . .. ....",
"    ....  .. ..            ..      .. .. ....  ................ ...................... ............ ..... . . .......  . ..  ...",
".....   .. . . .    .                . ... ..... ................................................... .. .  ...  . ......  .  .  ",
". ....    . .. .  ... ..  . .   .... .....  ... .... ...................... .. ..... ... ..... .. ... ..... .. ....... .    ..  ",
"..... ....   ...... . ...  .... .........  ....................... ........... .................. ......... ... .    ... .   . ."
};
