/* XPM */
static char *wall_n[] = {
/* columns rows colors chars-per-pixel */
"32 32 38 1 ",
"  c black",
". c black",
"X c #FFAD63",
"o c #833100",
"O c white",
"+ c #F7C4A5",
"@ c #7BFF30",
"# c #008300",
"$ c #65A49B",
"% c #0000FE",
"& c #FF8584",
"* c #943A3A",
"= c #E60000",
"- c #FFE7C5",
"; c #CE9C85",
": c #846B29",
"> c #5B315B",
", c #A56B31",
"< c #64A5FF",
"1 c #8B8CDE",
"2 c #53528C",
"3 c #A5A5A5",
"4 c gray32",
"5 c gray58",
"6 c #81E765",
"7 c #9394FE",
"8 c #FFFFA5",
"9 c #FF00FE",
"0 c yellow",
"q c #6B00FE",
"w c #7D4900",
"e c #FFFF3A",
"r c #3A2802",
"t c #51FF00",
"y c #FF4200",
"u c #0163C6",
"i c #008486",
"p c #FFDE00",
/* pixels */
"qqqqqqqq66666666qqqqqqqq66666666",
"qqqqqqqq66666666qqqqqqqq66666666",
"qqqqqqqq66666666qqqqqqqq66666666",
"qqqqqqqq66666666qqqqqqqq66666666",
"qqqqqqqq66666666qqqqqqqq66666666",
"qqqqqqqq66666666qqqqqqqq66666666",
"qqqqqqqq66666666qqqqqqqq66666666",
"qqqqqqqq66666666qqqqqqqq66666666",
"66666666qq33         336qqqqqqqq",
"66666666qq333        336qqqqqqqq",
"66666666qq3333       336qqqqqqqq",
"66666666qq3333       336qqqqqqqq",
"66666666qq33 33      336qqqqqqqq",
"66666666qq33  33     336qqqqqqqq",
"66666666qq33  33     336qqqqqqqq",
"66666666qq33   33    336qqqqqqqq",
"qqqqqqqq6633   333   33q66666666",
"qqqqqqqq6633    33   33q66666666",
"qqqqqqqq6633     33  33q66666666",
"qqqqqqqq6633     33  33q66666666",
"qqqqqqqq6633      33 33q66666666",
"qqqqqqqq6633       3333q66666666",
"qqqqqqqq6633       3333q66666666",
"qqqqqqqq6633        333q66666666",
"66666666qq33         336qqqqqqqq",
"66666666qqqqqqqq66666666qqqqqqqq",
"66666666qqqqqqqq66666666qqqqqqqq",
"66666666qqqqqqqq66666666qqqqqqqq",
"66666666qqqqqqqq66666666qqqqqqqq",
"66666666qqqqqqqq66666666qqqqqqqq",
"66666666qqqqqqqq66666666qqqqqqqq",
"66666666qqqqqqqq66666666qqqqqqqq"
};
