/* XPM */
static char *wall_w[] = {
/* columns rows colors chars-per-pixel */
"32 32 38 1 ",
"  c black",
". c black",
"X c #FFAD63",
"o c #833100",
"O c white",
"+ c #F7C4A5",
"@ c #7BFF30",
"# c #008300",
"$ c #65A49B",
"% c #0000FE",
"& c #FF8584",
"* c #943A3A",
"= c #E60000",
"- c #FFE7C5",
"; c #CE9C85",
": c #846B29",
"> c #5B315B",
", c #A56B31",
"< c #64A5FF",
"1 c #8B8CDE",
"2 c #53528C",
"3 c #A5A5A5",
"4 c gray32",
"5 c gray58",
"6 c #EDFE94",
"7 c #9394FE",
"8 c #FFFFA5",
"9 c #FF00FE",
"0 c yellow",
"q c #FE0000",
"w c #7D4900",
"e c #FFFF3A",
"r c #3A2802",
"t c #51FF00",
"y c #FF4200",
"u c #0163C6",
"i c #008486",
"p c #FFDE00",
/* pixels */
"qqqqqqqq66666666qqqqqqqq66666666",
"qqqqqqqq66666666qqqqqqqq66666666",
"qqqqqqqq66666666qqqqqqqq66666666",
"qqqqqqqq66666666qqqqqqqq66666666",
"qqqqqqqq66666666qqqqqqqq66666666",
"qqqqqqqq66666666qqqqqqqq66666666",
"qqqqqqqq66666666qqqqqqqq66666666",
"qqqqqqqq66666666qqqqqqqq66666666",
"6666633        333        33qqqq",
"6666633        333        33qqqq",
"66666 33      33 33      33 qqqq",
"66666 33      33 33      33 qqqq",
"66666 33      33 33      33 qqqq",
"66666 33     33   33     33 qqqq",
"66666  33    33   33    33  qqqq",
"66666  33    33   33    33  qqqq",
"qqqqq  33   333    33   33  6666",
"qqqqq  33   33     33   33  6666",
"qqqqq  333  33     33  333  6666",
"qqqqq   33 333     333 33   6666",
"qqqqq   33 33       33 33   6666",
"qqqqq   33 33       33 33   6666",
"qqqqq   33 33       33 33   6666",
"qqqqq    333         333    6666",
"66666    333         333    qqqq",
"66666666qqqqqqqq66666666qqqqqqqq",
"66666666qqqqqqqq66666666qqqqqqqq",
"66666666qqqqqqqq66666666qqqqqqqq",
"66666666qqqqqqqq66666666qqqqqqqq",
"66666666qqqqqqqq66666666qqqqqqqq",
"66666666qqqqqqqq66666666qqqqqqqq",
"66666666qqqqqqqq66666666qqqqqqqq"
};
