/* XPM */
static char *wall_s[] = {
/* columns rows colors chars-per-pixel */
"32 32 38 1 ",
"  c black",
". c black",
"X c #FFAD63",
"o c #833100",
"O c white",
"+ c #F7C4A5",
"@ c #7BFF30",
"# c #008300",
"$ c #65A49B",
"% c #0000FE",
"& c #FF8584",
"* c #943A3A",
"= c #E60000",
"- c #FFE7C5",
"; c #CE9C85",
": c #846B29",
"> c #5B315B",
", c #A56B31",
"< c #64A5FF",
"1 c #8B8CDE",
"2 c #53528C",
"3 c #A5A5A5",
"4 c gray32",
"5 c gray58",
"6 c #FE9494",
"7 c #9394FE",
"8 c #FFFFA5",
"9 c #FF00FE",
"0 c yellow",
"q c #A000FE",
"w c #7D4900",
"e c #FFFF3A",
"r c #3A2802",
"t c #51FF00",
"y c #FF4200",
"u c #0163C6",
"i c #008486",
"p c #FFDE00",
/* pixels */
"qqqqqqqq66666666qqqqqqqq66666666",
"qqqqqqqq66666666qqqqqqqq66666666",
"qqqqqqqq66666666qqqqqqqq66666666",
"qqqqqqqq66666666qqqqqqqq66666666",
"qqqqqqqq66666666qqqqqqqq66666666",
"qqqqqqqq66666666qqqqqqqq66666666",
"qqqqqqqq66666666qqqqqqqq66666666",
"qqqqqqqq66666666qqqqqqqq66666666",
"66666666q    333333    6qqqqqqqq",
"66666666q  3333333333  6qqqqqqqq",
"66666666q  33      333 6qqqqqqqq",
"66666666q 33        3336qqqqqqqq",
"66666666q 33         336qqqqqqqq",
"66666666q 33           6qqqqqqqq",
"66666666q  333         6qqqqqqqq",
"66666666q  33333333    6qqqqqqqq",
"qqqqqqqq6    33333333  q66666666",
"qqqqqqqq6         3333 q66666666",
"qqqqqqqq6           333q66666666",
"qqqqqqqq633          33q66666666",
"qqqqqqqq633          33q66666666",
"qqqqqqqq6 33        333q66666666",
"qqqqqqqq6 3333     333 q66666666",
"qqqqqqqq6  3333333333  q66666666",
"66666666q    333333    6qqqqqqqq",
"66666666qqqqqqqq66666666qqqqqqqq",
"66666666qqqqqqqq66666666qqqqqqqq",
"66666666qqqqqqqq66666666qqqqqqqq",
"66666666qqqqqqqq66666666qqqqqqqq",
"66666666qqqqqqqq66666666qqqqqqqq",
"66666666qqqqqqqq66666666qqqqqqqq",
"66666666qqqqqqqq66666666qqqqqqqq"
};
